<?xml version="1.0" standalone="no"?>
<!DOCTYPE svg PUBLIC "-//W3C//DTD SVG 20010904//EN"
 "http://www.w3.org/TR/2001/REC-SVG-20010904/DTD/svg10.dtd">
<svg version="1.0" xmlns="http://www.w3.org/2000/svg"
 width="2010.000000pt" height="1340.000000pt" viewBox="0 0 2010.000000 1340.000000"
 preserveAspectRatio="xMidYMid meet">
<metadata>
Created by potrace 1.16, written by Peter Selinger 2001-2019
</metadata>
<g transform="translate(0.000000,1340.000000) scale(0.100000,-0.100000)"
fill="#000000" stroke="none">
<path d="M0 6700 l0 -6700 10050 0 10050 0 0 6700 0 6700 -10050 0 -10050 0 0
-6700z m3889 6041 c46 -46 122 -195 337 -661 93 -201 185 -367 213 -384 4 -3
1 21 -8 53 -12 49 -13 65 -2 104 23 82 103 111 168 61 37 -28 55 -58 94 -154
29 -71 39 -77 120 -79 34 -1 51 4 64 19 10 11 39 88 64 173 49 159 103 271
147 306 35 27 84 27 119 -1 27 -21 27 -24 22 -95 -3 -40 -2 -73 3 -73 4 0 27
-16 50 -35 23 -19 43 -35 45 -35 2 0 16 37 31 83 88 266 174 460 222 497 15
12 40 20 64 20 48 0 76 -27 101 -97 10 -27 36 -81 58 -119 59 -99 154 -291
173 -348 27 -79 -2 -126 -77 -126 -45 0 -58 16 -121 152 -29 62 -73 149 -98
193 l-47 79 -20 -46 c-11 -26 -43 -113 -70 -192 -60 -173 -80 -215 -121 -250
-43 -36 -116 -36 -177 0 l-44 25 -17 -20 c-9 -12 -34 -24 -55 -28 -35 -7 -40
-13 -62 -66 -58 -143 -120 -187 -263 -187 -83 0 -85 -1 -123 -35 -35 -31 -45
-35 -95 -35 -123 0 -273 116 -376 291 l-35 59 -6 -198 c-4 -136 -10 -213 -21
-247 -27 -87 -98 -134 -171 -114 -35 10 -119 67 -143 98 -11 14 -16 12 -40
-19 -86 -111 -173 -136 -282 -80 -79 40 -122 110 -150 243 -9 45 -9 61 0 72
15 18 39 19 44 3 29 -95 64 -168 96 -200 33 -34 43 -38 87 -38 56 0 70 11 124
99 28 47 33 66 40 153 9 119 27 176 88 286 57 104 76 116 144 87 36 -15 14 81
-58 255 -68 163 -175 483 -169 506 14 56 95 83 133 45z m857 -1831 c32 -16
137 -83 231 -147 502 -342 592 -405 602 -417 14 -17 4 -44 -19 -51 -30 -10
-101 33 -438 259 -348 234 -429 283 -442 270 -14 -14 -89 -241 -112 -334 -26
-109 -32 -120 -69 -120 -46 0 -54 32 -39 165 7 61 15 166 18 235 6 102 10 125
22 125 11 0 16 -15 18 -59 l3 -59 32 64 c24 48 41 68 67 81 47 24 57 23 126
-12z m12253 -160 c119 -16 248 -87 304 -170 17 -24 18 -24 45 -7 93 61 157 73
327 62 89 -5 118 -11 122 -22 10 -25 -12 -30 -150 -36 -146 -6 -203 -21 -259
-67 l-36 -30 0 -87 c0 -64 -6 -105 -22 -151 -26 -75 -22 -82 56 -112 89 -33
146 -27 295 30 106 40 147 62 222 118 132 99 339 222 373 222 47 0 72 -71 37
-102 -10 -9 -72 -48 -138 -88 -66 -40 -157 -99 -202 -132 -92 -66 -129 -84
-276 -135 -175 -60 -294 -54 -407 21 l-37 24 -63 -59 c-76 -73 -253 -191 -392
-262 -137 -70 -317 -131 -351 -118 -46 18 -48 88 -4 108 13 6 72 27 131 47
191 64 462 221 557 323 l46 49 -5 79 c-4 76 -2 83 32 149 20 38 36 77 36 87 0
25 -64 95 -114 124 -75 44 -126 56 -280 65 -109 7 -154 14 -165 24 -18 18 -2
42 32 49 42 8 213 6 286 -3z m-12207 -242 c9 -7 24 -44 34 -83 33 -137 191
-584 322 -910 97 -242 189 -441 433 -936 211 -429 253 -529 217 -517 -7 3 -48
67 -91 144 -93 166 -449 875 -531 1059 -160 354 -456 1138 -456 1203 0 23 25
52 44 52 7 0 19 -6 28 -12z m9623 -403 c165 -21 301 -47 575 -110 129 -30 264
-59 300 -65 142 -23 169 -36 185 -88 10 -35 -50 -86 -180 -154 -141 -72 -199
-96 -429 -174 -294 -101 -464 -199 -481 -279 -3 -17 -13 -45 -20 -62 -12 -28
-20 -33 -48 -33 -54 0 -70 26 -61 99 17 156 165 260 547 386 219 72 317 110
420 161 l72 37 -255 63 c-487 120 -644 147 -980 164 -222 12 -250 15 -250 35
0 17 14 26 54 36 47 13 416 2 551 -16z m-143 -232 c25 -22 23 -59 -4 -77 -27
-17 -113 -42 -478 -135 -413 -105 -600 -174 -980 -362 -320 -158 -547 -285
-1073 -601 -525 -316 -613 -364 -633 -347 -22 18 -17 26 34 56 26 15 191 117
367 227 874 545 1314 784 1771 961 150 58 270 96 508 160 111 30 255 72 321
94 140 46 143 46 167 24z m5558 -1510 c16 -9 41 -39 57 -67 27 -49 28 -57 27
-176 -1 -141 -25 -259 -89 -435 -104 -285 -151 -445 -170 -580 -15 -107 -26
-125 -76 -125 -34 0 -59 32 -59 76 0 94 55 287 195 679 67 188 86 276 86 402
0 88 -10 128 -35 145 -6 4 -72 8 -146 8 -148 0 -183 -10 -249 -65 -46 -40 -59
-75 -67 -192 -4 -56 -10 -107 -15 -115 -19 -30 -29 13 -31 133 -2 102 1 130
15 157 36 66 128 139 207 163 14 4 92 8 173 8 123 1 154 -2 177 -16z m-9542
-313 c30 -28 40 -73 52 -250 25 -357 42 -513 75 -675 38 -186 93 -395 105
-395 4 0 10 13 13 29 3 15 18 42 32 60 22 25 34 31 67 31 55 0 74 -13 109 -75
16 -29 35 -58 42 -63 7 -5 51 -21 98 -36 65 -19 97 -36 133 -67 91 -80 195
-256 237 -401 17 -59 22 -110 26 -269 6 -231 -6 -313 -67 -452 -81 -185 -256
-400 -365 -448 -90 -40 -167 -1 -225 113 -35 71 -39 119 -10 148 50 50 104 31
145 -50 14 -28 31 -50 37 -50 37 0 195 203 252 323 67 142 88 303 67 507 -14
130 -40 212 -100 314 -71 121 -103 150 -191 176 -41 12 -90 31 -109 41 -37 22
-51 15 -51 -25 0 -39 -25 -98 -48 -117 -37 -29 -93 -25 -127 8 -56 57 -125
225 -180 438 -38 149 -34 155 -65 -110 -25 -214 -39 -270 -74 -308 -19 -21
-35 -27 -65 -27 -49 0 -83 31 -131 121 -18 35 -58 102 -87 148 -54 82 -54 83
-75 65 -26 -25 -42 -58 -57 -119 -17 -71 -35 -95 -71 -95 -47 0 -63 34 -55
117 3 37 9 228 13 423 4 195 11 361 15 368 13 20 36 14 41 -10 3 -13 10 -142
16 -287 6 -146 13 -267 15 -270 3 -2 14 4 25 14 13 11 40 20 73 22 71 6 101
-16 179 -126 75 -107 70 -112 92 109 30 297 50 633 59 1007 2 102 4 114 26
137 30 32 78 34 109 6z m-1256 -280 c18 -13 31 -40 42 -82 25 -100 63 -281 91
-443 34 -191 29 -177 59 -164 38 18 76 -10 76 -56 0 -29 -6 -37 -40 -56 -22
-13 -40 -26 -40 -31 0 -18 62 -426 75 -494 8 -40 19 -83 25 -95 7 -11 14 -53
17 -93 6 -72 5 -72 -26 -99 -35 -29 -47 -32 -85 -17 -32 12 -40 28 -70 136
-13 49 -38 125 -54 169 -16 44 -35 114 -42 156 -11 71 -11 97 6 206 6 39 4 44
-19 52 -65 25 -91 23 -137 -8 -33 -22 -48 -27 -57 -19 -7 6 -13 16 -13 22 0
16 67 84 91 91 10 4 19 13 19 21 0 10 13 14 45 14 54 0 53 -10 20 170 -14 74
-25 140 -25 145 -1 6 -13 -28 -29 -75 -69 -209 -144 -290 -254 -274 -31 5 -33
3 -55 -49 -37 -86 -106 -146 -207 -180 -46 -16 -53 -16 -100 -1 -36 12 -66 33
-107 75 -56 58 -57 58 -85 44 -40 -21 -121 -19 -159 4 -64 39 -84 156 -37 219
29 39 89 70 105 54 9 -9 7 -18 -10 -42 -36 -48 -26 -130 14 -130 7 0 34 18 59
40 70 61 103 52 196 -49 31 -34 64 -61 75 -61 46 0 84 39 124 124 47 104 70
121 158 121 64 0 64 0 83 37 32 63 79 242 108 416 16 92 32 174 35 183 17 39
89 50 128 19z m-2065 -538 c23 -27 54 -144 113 -418 21 -96 36 -144 51 -160
29 -31 23 -75 -13 -92 -67 -32 -92 20 -149 304 -23 115 -46 213 -51 219 -4 5
-8 -74 -8 -175 0 -169 -8 -251 -24 -268 -4 -3 -14 2 -23 11 -15 14 -17 51 -21
271 -3 140 -2 266 2 281 17 67 79 81 123 27z m498 -87 c41 -40 30 -92 -23
-114 -16 -7 -60 -15 -98 -19 l-69 -7 -3 -63 c-4 -81 15 -147 85 -289 66 -135
94 -163 162 -163 39 0 52 5 76 30 49 52 125 29 125 -38 0 -35 -53 -100 -96
-118 -41 -17 -133 -18 -186 -2 -89 26 -164 133 -253 358 -35 88 -38 102 -39
210 l-2 115 36 44 c55 69 82 81 178 81 75 0 85 -2 107 -25z m-1589 -112 c10
-16 55 -94 101 -176 89 -158 196 -325 238 -369 32 -34 58 -36 78 -5 22 35 64
177 93 318 26 130 40 163 74 174 53 17 83 -12 159 -150 19 -33 56 -88 82 -121
58 -73 64 -111 23 -143 -15 -12 -37 -21 -49 -21 -28 0 -101 78 -145 156 -35
60 -50 74 -50 46 0 -11 -18 -77 -41 -146 -36 -114 -45 -132 -88 -177 -60 -62
-100 -67 -157 -16 -76 65 -262 386 -324 557 -17 44 -30 85 -30 90 0 19 18 10
36 -17z m12950 -85 c35 -35 35 -91 -1 -155 -14 -27 -77 -113 -139 -193 l-113
-145 133 -3 c118 -2 138 0 173 18 70 35 117 22 135 -37 5 -16 -1 -31 -24 -56
-49 -57 -96 -67 -299 -67 -232 0 -270 11 -285 86 -8 36 7 60 157 240 131 158
192 243 181 254 -5 5 -82 13 -171 17 -167 9 -198 18 -174 47 14 17 114 24 299
22 96 -1 104 -3 128 -28z m817 -558 c4 -14 14 -20 34 -20 22 0 33 -7 41 -25
15 -32 3 -64 -38 -98 -25 -22 -35 -25 -51 -16 -11 5 -24 21 -29 35 -8 21 -5
97 6 132 6 19 31 14 37 -8z m-13783 -655 c21 -25 2 -49 -100 -130 -253 -203
-734 -492 -1071 -646 -393 -179 -723 -293 -1334 -460 -380 -105 -604 -152
-899 -189 -207 -27 -398 -54 -609 -87 -199 -31 -220 -27 -215 34 2 29 9 41 28
49 26 12 407 65 780 109 312 37 580 94 1018 215 749 209 1205 391 1702 680
159 92 506 323 585 389 62 52 94 62 115 36z m12783 -215 c30 -36 35 -55 45
-191 7 -88 14 -118 41 -174 17 -38 50 -88 72 -112 31 -34 39 -49 34 -66 -14
-45 -71 -68 -108 -44 -27 18 -112 187 -132 265 -9 32 -15 101 -15 159 0 85 -3
105 -16 110 -23 9 -129 -36 -428 -180 -253 -122 -331 -150 -331 -119 0 13 224
135 539 292 150 75 188 90 227 90 40 0 51 -4 72 -30z m-11355 -32 c8 -8 12
-47 12 -110 0 -96 1 -99 25 -108 31 -12 34 -49 5 -57 -19 -5 -20 -14 -20 -149
l0 -144 60 39 c105 68 241 101 269 67 7 -8 11 -29 9 -48 -3 -37 -17 -45 -121
-78 -38 -11 -99 -38 -135 -60 -72 -44 -108 -49 -142 -22 -21 17 -21 24 -20
205 l0 187 -52 0 c-29 0 -91 -9 -138 -20 -47 -11 -93 -20 -102 -20 -28 0 -21
29 10 41 40 16 180 48 233 54 l46 6 7 106 c4 58 9 110 12 115 7 12 28 10 42
-4z m1656 -172 c62 -26 108 -106 156 -271 18 -61 50 -156 71 -213 42 -110 42
-129 -2 -153 -31 -16 -67 -3 -85 33 -21 41 -63 164 -104 303 -18 61 -42 128
-54 150 l-20 40 -8 -99 c-5 -65 -13 -107 -24 -124 l-17 -26 -18 22 c-37 46
-52 220 -25 286 15 37 50 66 79 66 9 0 33 -6 51 -14z m-520 -18 c14 -13 59
-86 101 -163 124 -226 136 -245 163 -245 29 0 72 -42 72 -71 0 -33 -37 -85
-69 -99 -24 -9 -34 -9 -59 4 -40 21 -70 61 -147 198 -35 62 -72 127 -81 143
l-17 30 -16 -65 c-27 -105 -56 -140 -116 -140 -64 0 -105 56 -105 142 0 106
37 168 101 168 23 0 29 6 39 38 17 51 48 82 81 82 15 0 39 -10 53 -22z m-420
-71 c28 -21 17 -59 -24 -79 -31 -16 -36 -23 -40 -64 -6 -54 -28 -76 -54 -55
-19 16 -22 120 -5 153 6 11 29 28 52 39 50 22 49 22 71 6z m4740 -42 c47 -23
66 -64 87 -193 20 -124 41 -193 65 -212 20 -18 17 -67 -6 -90 -42 -42 -103
-14 -144 67 -15 30 -36 110 -51 196 l-6 38 -26 -21 c-30 -24 -91 -27 -119 -5
-10 8 -22 15 -26 15 -4 0 -21 -28 -39 -61 -18 -34 -43 -66 -55 -71 -37 -17
-74 -2 -90 38 -19 45 -6 88 37 130 17 16 38 46 46 66 26 65 81 85 139 49 l32
-19 22 30 c19 26 68 56 93 58 5 0 23 -7 41 -15z m5516 -35 c28 -28 25 -51 -15
-102 -99 -131 -308 -477 -645 -1068 -298 -524 -319 -560 -330 -560 -24 0 45
230 106 352 106 211 631 1128 737 1288 43 64 88 110 109 110 10 0 27 -9 38
-20z m-7046 -100 c64 -24 116 -77 116 -118 -1 -36 -23 -62 -91 -105 -31 -19
-60 -40 -63 -46 -20 -32 -86 9 -86 54 0 29 29 59 90 90 l45 23 -34 18 c-18 11
-45 28 -59 40 -21 17 -23 23 -13 42 14 27 26 27 95 2z m426 -15 c10 -12 8 -16
-11 -24 -13 -5 -36 -12 -51 -15 l-27 -6 24 -36 c30 -44 31 -65 6 -119 -22 -49
-43 -67 -76 -67 -53 0 -71 48 -38 98 15 24 15 27 -6 65 -25 43 -22 68 12 99
27 25 147 29 167 5z m-1613 -34 c36 -23 73 -74 136 -191 25 -47 53 -94 60
-104 14 -19 15 -18 32 15 48 94 141 136 214 95 16 -9 44 -12 80 -9 53 5 58 3
88 -29 28 -30 54 -74 108 -190 9 -21 21 -35 26 -33 11 8 3 52 -32 166 -32 103
-30 137 10 158 61 33 98 0 140 -124 55 -164 51 -242 -15 -315 -42 -46 -87 -59
-144 -40 -54 18 -93 62 -134 151 l-35 76 -49 -5 c-47 -4 -50 -3 -80 34 -20 24
-35 35 -41 29 -5 -6 -23 -45 -41 -88 -34 -81 -58 -107 -100 -107 -37 0 -59 28
-130 165 -97 187 -142 264 -157 269 -37 15 -63 -33 -63 -115 0 -63 -15 -101
-38 -97 -31 6 -43 161 -16 227 29 74 114 102 181 62z m-8109 -97 c2 -32 -6
-58 -36 -117 -69 -132 -267 -399 -451 -607 l-75 -85 210 -7 c356 -11 502 -30
1009 -134 350 -71 365 -77 365 -140 0 -38 -38 -74 -79 -74 -24 0 -132 22 -501
100 -286 61 -492 85 -845 99 -254 10 -286 18 -311 77 -9 20 -13 47 -10 59 3
13 47 67 97 122 194 209 361 419 494 621 72 108 92 132 109 130 17 -2 22 -11
24 -44z m7579 29 c2 -6 -8 -18 -23 -26 l-27 -14 64 -47 c92 -67 105 -96 70
-165 -54 -104 -171 -139 -171 -50 0 20 10 36 34 54 54 41 53 52 -9 111 -45 43
-55 59 -55 85 0 48 25 71 74 67 22 -2 41 -8 43 -15z m2451 -95 c7 -7 13 -44
13 -87 1 -42 4 -109 8 -148 l6 -73 45 37 c25 19 78 58 119 84 85 57 122 62
147 24 25 -38 7 -67 -74 -114 -39 -22 -103 -63 -143 -91 -79 -54 -110 -61
-149 -30 l-25 19 2 170 c3 198 15 245 51 209z m937 -815 c177 -100 681 -453
1135 -794 264 -198 330 -255 330 -283 0 -24 -41 -66 -64 -66 -14 0 -69 38
-142 98 -345 283 -1183 886 -1344 967 -95 48 -110 75 -70 115 27 27 54 20 155
-37z m-3785 -224 c9 -15 9 -52 1 -134 -12 -138 -49 -253 -159 -495 -41 -91
-82 -184 -90 -207 l-16 -42 32 -43 c152 -202 173 -246 135 -281 -41 -36 -78
-23 -123 45 -18 29 -58 86 -86 126 -90 126 -93 165 -18 278 26 38 73 124 106
192 103 215 145 343 155 467 3 44 10 88 15 98 12 23 35 22 48 -4z m5768 -366
c20 -17 21 -29 24 -393 3 -374 3 -375 -19 -406 -40 -56 -31 -57 -483 51 -196
46 -304 67 -375 72 -116 7 -155 17 -136 36 8 8 53 12 144 11 118 0 162 -6 417
-56 356 -70 338 -67 349 -54 6 7 6 49 1 111 -5 55 -11 216 -12 358 -3 246 -2
259 16 273 26 19 49 18 74 -3z m-14313 -93 c71 -44 150 -155 185 -260 28 -80
38 -261 21 -370 -6 -41 -34 -140 -61 -219 l-49 -145 22 -15 c105 -74 257 -235
257 -273 0 -26 -27 -58 -49 -58 -8 0 -51 37 -96 83 -49 51 -113 104 -167 137
-62 39 -92 65 -104 89 -15 31 -15 36 6 90 106 271 131 393 114 555 -12 107
-46 190 -109 263 -35 42 -91 68 -120 57 -20 -8 -33 -56 -40 -151 -4 -46 -11
-83 -15 -83 -14 0 -20 43 -20 148 0 111 12 150 54 171 31 16 133 4 171 -19z
m1021 -410 c46 -23 61 -42 87 -107 40 -103 104 -447 133 -721 16 -156 16 -163
-1 -182 -23 -25 -57 -26 -80 0 -13 14 -20 46 -26 117 -27 315 -54 496 -100
694 -27 116 -40 129 -132 129 -93 0 -133 -20 -163 -80 -27 -53 -48 -58 -52
-12 -2 22 5 48 23 78 31 53 81 80 172 93 88 13 93 13 139 -9z m7727 -41 c12
-7 25 -17 29 -23 13 -20 8 -66 -11 -104 -31 -62 -51 -134 -86 -306 -36 -180
-47 -209 -88 -240 -37 -27 -53 -22 -302 97 -152 73 -200 100 -200 114 0 37 78
20 259 -57 92 -39 171 -69 173 -66 3 3 14 63 24 133 24 161 53 277 91 371 36
86 63 106 111 81z m7245 -15 c45 -31 75 -130 114 -374 20 -129 23 -180 23
-460 0 -303 -1 -318 -24 -400 -63 -220 -227 -508 -330 -577 -51 -35 -106 -46
-216 -46 -226 1 -393 84 -344 172 24 43 59 48 126 18 78 -35 133 -46 225 -47
122 0 149 16 230 140 71 107 153 281 180 380 22 79 23 104 23 375 0 252 -3
310 -24 445 -30 202 -33 209 -56 140 -67 -205 -145 -287 -262 -278 -68 6 -117
44 -158 123 -27 53 -30 68 -30 152 1 85 7 115 20 101 3 -3 12 -41 21 -84 19
-101 47 -158 92 -189 47 -32 83 -32 122 1 41 35 60 75 105 219 41 130 67 190
87 198 25 10 54 7 76 -9z m-5416 -593 c34 -28 76 -126 94 -222 15 -76 62 -217
163 -484 46 -121 131 -412 131 -448 0 -56 -58 -89 -110 -62 -29 15 -44 49 -80
195 -27 110 -103 322 -110 309 -4 -8 -13 -37 -18 -65 -20 -95 -71 -239 -104
-294 -64 -106 -152 -125 -282 -61 -148 73 -150 172 -8 301 105 95 217 139 217
86 0 -13 -19 -31 -56 -53 -57 -33 -142 -118 -162 -160 -14 -32 13 -60 78 -79
78 -22 93 -11 134 101 49 132 72 253 78 415 l6 155 -47 129 c-26 71 -48 147
-48 168 -1 74 68 112 124 69z m-1458 -431 c12 -11 26 -57 41 -126 18 -87 66
-298 111 -484 5 -20 10 -11 28 50 30 105 57 145 111 165 43 17 45 17 90 -5 53
-26 105 -85 139 -161 31 -68 44 -209 26 -292 -19 -95 -106 -187 -209 -224 -46
-16 -50 -20 -56 -57 -13 -84 -88 -114 -144 -59 -26 26 -47 95 -77 251 -7 37
-20 42 -29 11 -10 -30 -183 -198 -229 -221 -29 -15 -52 -19 -84 -15 -57 6 -91
39 -189 179 -41 59 -78 110 -83 113 -4 3 -15 -6 -24 -20 -9 -14 -35 -34 -58
-46 -116 -59 -334 38 -409 182 -28 53 -39 205 -19 263 16 48 56 96 97 112 60
26 263 12 263 -17 0 -16 -41 -27 -134 -37 -110 -12 -127 -26 -134 -108 -8 -94
12 -156 64 -204 83 -76 199 -107 225 -59 11 21 8 129 -7 277 -6 57 -4 65 17
88 15 16 33 24 56 24 48 0 78 -34 87 -96 3 -29 25 -88 50 -136 55 -109 206
-338 221 -338 7 0 44 33 82 73 91 96 98 120 97 342 0 149 -4 185 -28 290 -38
165 -44 237 -22 270 31 47 90 54 130 15z m-8446 -76 c25 -17 29 -59 8 -89 -7
-11 -17 -39 -20 -61 -15 -89 -96 -114 -120 -38 -15 48 25 168 63 189 34 18 42
18 69 -1z m872 -194 c64 5 84 2 96 -15 20 -27 17 -58 -7 -89 -38 -48 -89 -26
-89 39 0 22 -3 25 -21 20 -14 -5 -25 -1 -34 12 -24 31 -19 46 13 39 15 -4 34
-6 42 -6z m5778 -184 c37 -19 72 -70 72 -104 0 -29 -30 -42 -44 -18 -25 41
-33 47 -68 55 -20 5 -118 5 -217 1 -232 -10 -244 -16 -335 -141 -57 -78 -70
-89 -96 -89 -42 0 -68 40 -51 77 33 73 141 188 206 220 49 24 53 24 275 20
189 -3 230 -6 258 -21z m2610 -92 c2 -11 -27 -77 -63 -146 -36 -68 -65 -128
-65 -131 0 -15 180 -7 221 10 l42 16 23 -26 c31 -37 20 -65 -37 -95 -41 -22
-53 -23 -155 -19 -124 6 -170 22 -180 63 -10 39 2 78 52 166 89 158 113 190
137 186 13 -2 23 -11 25 -24z m-4892 -29 c139 -80 186 -154 186 -283 -1 -46
-10 -114 -21 -160 -12 -44 -21 -103 -21 -131 0 -51 1 -52 46 -79 120 -70 139
-86 142 -119 4 -39 -26 -73 -64 -73 -29 0 -157 67 -206 108 -17 14 -37 41 -44
59 -21 50 -17 148 11 243 50 168 44 231 -27 295 -56 52 -112 75 -180 75 -74 0
-86 -17 -95 -129 -6 -83 -17 -107 -43 -91 -11 7 -16 35 -18 112 -3 119 10 152
75 188 32 17 52 20 124 17 73 -3 93 -7 135 -32z m1314 -51 c11 -13 25 -161 30
-314 1 -47 11 -51 70 -30 169 59 346 111 368 108 14 -2 34 -16 46 -31 19 -26
19 -30 6 -55 -16 -29 -93 -58 -326 -122 -146 -40 -184 -40 -218 1 -37 43 -39
59 -34 247 5 193 20 243 58 196z"/>
<path d="M3968 11742 c-39 -101 -61 -196 -54 -235 4 -19 21 -48 40 -66 l34
-33 7 43 c3 24 5 115 3 202 l-3 159 -27 -70z"/>
<path d="M9991 1116 c-11 -73 -21 -143 -21 -155 0 -21 1 -21 31 -6 40 21 59
69 59 149 0 62 -23 146 -40 146 -4 0 -17 -60 -29 -134z"/>
</g>
</svg>
